# Quaternius Claymore, CC0 1.0. https://quaternius.com/packs/medievalweapons.html
# Adapted: normalized to 1m overall reach, local -Z; broader spectral blade.
v 0.0382708 -0.0142782 -0.0690834
v 0.0149477 -0.0093423 -0.0837253
v 0.0477335 0.0000000 -0.0690834
v 0.0211392 0.0000000 -0.0837253
v 0.0382708 0.0142782 -0.0690834
v 0.0149477 0.0093423 -0.0837253
v 0.0053399 -0.0029300 -0.0000000
v 0.0072818 0.0000000 -0.0000000
v 0.0053399 0.0029300 -0.0000000
v 0.1172727 0.0102264 -0.3382073
v 0.0682012 -0.0000000 -0.3258388
v 0.1172727 0.0000000 -0.3382073
v 0.0163622 -0.0102264 -0.2695106
v 0.0231396 0.0000000 -0.2695106
v 0.0163622 0.0102264 -0.2695106
v 0.0150853 0.0094529 -0.1237935
v 0.0150897 0.0095633 -0.1537134
v 0.0162496 0.0096738 -0.1575420
v 0.0148361 0.0097844 -0.1899730
v 0.0127733 0.0098949 -0.1962683
v 0.0165221 0.0100053 -0.2310884
v 0.0161853 0.0101158 -0.2351724
v 0.0150853 -0.0094529 -0.1237935
v 0.0150897 -0.0095633 -0.1537134
v 0.0162496 -0.0096738 -0.1575420
v 0.0148361 -0.0097844 -0.1899730
v 0.0127413 -0.0098949 -0.1961567
v 0.0165221 -0.0100053 -0.2310884
v 0.0161853 -0.0101158 -0.2351724
v 0.0228895 0.0000000 -0.2358556
v 0.0231561 0.0000000 -0.2322656
v 0.0199086 -0.0000000 -0.1978117
v 0.0211734 0.0000000 -0.1890089
v 0.0226534 0.0000000 -0.1573229
v 0.0213399 0.0000000 -0.1544511
v 0.0211402 0.0000000 -0.1249223
v 0.0194704 0.0122887 -0.1275793
v 0.0196165 0.0124323 -0.1502833
v 0.0194704 -0.0122887 -0.1275793
v 0.0196165 -0.0124323 -0.1502833
v 0.0270410 0.0000000 -0.1496023
v 0.0257068 0.0000000 -0.1305230
v 0.0191783 0.0125760 -0.1616751
v 0.0195532 0.0127196 -0.1845826
v 0.0191783 -0.0125760 -0.1616751
v 0.0195532 -0.0127196 -0.1845826
v 0.0264849 0.0000000 -0.1812609
v 0.0275029 0.0000000 -0.1613904
v 0.1172727 -0.0102264 -0.3382073
v 0.0682012 -0.0102264 -0.3258388
v 0.1186358 -0.0102264 -0.2964918
v 0.0172293 0.0128632 -0.2012349
v 0.0188239 0.0130070 -0.2250295
v 0.0172293 -0.0128632 -0.2012349
v 0.0188239 -0.0130070 -0.2250295
v 0.0282791 0.0000000 -0.2258188
v 0.0253077 -0.0000000 -0.2040422
v 0.0163346 0.0102091 -0.2673734
v 0.0163346 -0.0102091 -0.2673734
v 0.0231006 0.0000000 -0.2673734
v 0.0710893 -0.0102264 -0.2964918
v 0.0163622 -0.0102264 -0.2969137
v 0.0300306 0.0000000 -0.2625646
v 0.0297564 0.0000000 -0.2452735
v 0.0210409 -0.0131506 -0.2423121
v 0.1186358 0.0102264 -0.3102077
v 0.0210409 0.0131506 -0.2423121
v 0.1186358 -0.0102264 -0.3102077
v 0.1186358 0.0000000 -0.3102077
v 0.0212350 0.0132717 -0.2625646
v 0.0212350 -0.0132717 -0.2625646
v 0.0163622 -0.0102264 -0.3243170
v 0.0163622 0.0102264 -0.3243170
v 0.1186358 0.0102264 -0.2827759
v 0.1186358 -0.0102264 -0.2827759
v 0.1186358 0.0000000 -0.2827759
v 0.0710893 0.0000000 -0.2827759
v 0.0710893 -0.0102264 -0.2827759
v 0.0710893 0.0102264 -0.2827759
v 0.0710893 0.0000000 -0.3102077
v 0.0710893 -0.0102264 -0.3102077
v 0.0710893 0.0102264 -0.3102077
v 0.0118087 -0.0042309 -0.3243170
v 0.0330449 -0.0042309 -0.6849921
v 0.0118087 0.0042309 -0.3243170
v 0.0369138 0.0000000 -0.3243170
v 0.0282585 -0.0042309 -0.3243170
v 0.0282585 0.0042309 -0.3243170
v 0.0118087 0.0042309 -0.6859607
v 0.0330449 0.0042309 -0.6849921
v 0.0282585 0.0042309 -0.6599914
v 0.0118087 -0.0042309 -0.6585875
v 0.0118087 0.0042309 -0.6585875
v 0.0369138 0.0000000 -0.6599914
v 0.0282585 -0.0042309 -0.6599914
v 0.0156620 0.0042309 -0.6709328
v 0.0118087 0.0042309 -0.6733269
v 0.0156620 -0.0042309 -0.6709328
v 0.0118087 -0.0042309 -0.6733269
v 0.0225035 -0.0000000 -0.6699533
v 0.0118087 -0.0042309 -0.6859607
v 0.0398109 0.0000000 -0.6837297
v 0.0282577 0.0000000 -0.9522836
v 0.0369138 0.0000000 -0.9319370
v 0.0197332 0.0042309 -0.6992338
v 0.0118087 -0.0042309 -0.9679006
v 0.0248016 -0.0042309 -0.9396938
v 0.0282585 0.0042309 -0.7239788
v 0.0248016 0.0042309 -0.9396938
v 0.0118087 0.0042309 -0.9679006
v 0.0197332 -0.0042309 -0.6992338
v 0.0118087 0.0042309 -0.6959038
v 0.0118087 -0.0042309 -0.6959038
v 0.0276631 0.0000000 -0.7002132
v 0.0374184 0.0042309 -0.7136631
v 0.0374184 -0.0042309 -0.7136631
v 0.0118087 0.0042309 -0.7099413
v 0.0118087 -0.0042309 -0.7099413
v 0.0434437 0.0000000 -0.7138589
v 0.0130366 0.0000000 -0.9811956
v 0.0282585 -0.0042309 -0.7239788
v 0.0118087 0.0042309 -0.7239788
v 0.0118087 -0.0042309 -0.7239788
v 0.0369138 0.0000000 -0.7239788
v 0.0118087 0.0042309 -0.7531175
v 0.0118087 0.0042309 -0.8113014
v 0.0118087 0.0042309 -0.8287250
v 0.0118087 0.0042309 -0.8461484
v 0.0118087 0.0042309 -0.8635719
v 0.0118087 0.0042309 -0.8809954
v 0.0282585 -0.0042309 -0.7531175
v 0.0244670 -0.0042309 -0.8113014
v 0.0282585 -0.0042309 -0.8287250
v 0.0168843 -0.0042309 -0.8461484
v 0.0282585 -0.0042309 -0.8635719
v 0.0282585 -0.0042309 -0.8809954
v 0.0282585 0.0042309 -0.7531175
v 0.0244670 0.0042309 -0.8113014
v 0.0282585 0.0042309 -0.8287250
v 0.0168843 0.0042309 -0.8461484
v 0.0282585 0.0042309 -0.8635719
v 0.0282585 0.0042309 -0.8809954
v 0.0118087 -0.0042309 -0.8809954
v 0.0118087 -0.0042309 -0.8635719
v 0.0118087 -0.0042309 -0.8461484
v 0.0118087 -0.0042309 -0.8287250
v 0.0118087 -0.0042309 -0.8113014
v 0.0118087 -0.0042309 -0.7531175
v 0.0369138 0.0000000 -0.8809954
v 0.0369138 0.0000000 -0.8635719
v 0.0255396 0.0000000 -0.8461484
v 0.0369138 0.0000000 -0.8287250
v 0.0331223 0.0000000 -0.8113014
v 0.0369138 0.0000000 -0.7531175
v -0.0040360 -0.0029300 -0.0000000
v -0.0004248 -0.0139934 -0.1963992
v -0.0014611 -0.0138372 -0.1921992
v 0.0005066 -0.0136809 -0.1560154
v 0.0004673 -0.0133683 -0.1210681
v 0.0004673 -0.0173787 -0.1240364
v -0.0013337 -0.0179883 -0.1875069
v 0.0003858 -0.0177851 -0.1604711
v 0.0002567 -0.0181914 -0.1987641
v -0.0139549 -0.0042309 -0.3243170
v -0.0139549 -0.0042309 -0.6585875
v -0.0139549 -0.0042309 -0.6733269
v -0.0139549 -0.0042309 -0.6859607
v -0.0139549 -0.0042309 -0.6959038
v 0.1064515 0.0102264 -0.3659464
v -0.0139549 -0.0042309 -0.7099413
v 0.1064515 -0.0102264 -0.3659464
v -0.0139549 -0.0042309 -0.7239788
v 0.1064515 0.0000000 -0.3659464
v 0.0118087 -0.0042309 -0.4856838
v 0.0330141 0.0000000 -0.4856838
v 0.0243588 0.0042309 -0.4856838
v 0.0118087 0.0042309 -0.4856838
v 0.0243588 -0.0042309 -0.4856838
v -0.0139549 -0.0042309 -0.4856838
v 0.0682012 0.0102264 -0.3258388
v 0.0349709 -0.0145442 -0.0456905
v 0.0446098 0.0000000 -0.0456905
v 0.0349709 0.0145442 -0.0456905
v 0.0003363 -0.0133162 -0.1153422
v -0.0007065 -0.0132642 -0.0874558
v 0.0217877 0.0000000 -0.1199258
v 0.0205817 0.0000000 -0.0910155
v 0.0144477 0.0093792 -0.0914788
v 0.0155941 0.0094160 -0.1199621
v 0.0144477 -0.0093792 -0.0914788
v 0.0155941 -0.0094160 -0.1199621
v 0.0029673 -0.0159040 -0.1135611
v -0.0006354 -0.0158419 -0.0912515
v 0.0265014 0.0000000 -0.1148720
v 0.0256166 0.0000000 -0.0941539
v 0.0183134 0.0112019 -0.0947888
v 0.0183636 0.0112459 -0.1162284
v 0.0183134 -0.0112019 -0.0947888
v 0.0183636 -0.0112459 -0.1162284
v 0.0053399 0.0000005 -0.0000000
v 0.0118087 -0.0042309 -0.3584286
v 0.0599285 0.0000000 -0.3584286
v -0.0139549 -0.0042309 -0.3584286
v 0.0512731 0.0042309 -0.3584286
v 0.0118087 0.0042309 -0.3584286
v 0.0512731 -0.0042309 -0.3584286
v 0.0340700 0.0042309 -0.3809593
v 0.0118087 0.0042309 -0.3809593
v 0.0340700 -0.0042309 -0.3809593
v 0.0118087 -0.0042309 -0.3809593
v 0.0427256 0.0000000 -0.3809593
v -0.0139549 -0.0042309 -0.3809593
v 0.0422013 0.0042309 -0.4050467
v 0.0118087 0.0042309 -0.4050467
v 0.0422013 -0.0042309 -0.4050467
v 0.0118087 -0.0042309 -0.4050467
v 0.0508566 0.0000000 -0.4050467
v -0.0139549 -0.0042309 -0.4050467
v 0.0341367 0.0042309 -0.4180717
v 0.0118087 0.0042309 -0.4180717
v 0.0341367 -0.0042309 -0.4180717
v 0.0118087 -0.0042309 -0.4180717
v 0.0427920 0.0000000 -0.4180717
v -0.0139549 -0.0042309 -0.4180717
v -0.0382708 -0.0142782 -0.0690834
v -0.0149477 -0.0093423 -0.0837253
v -0.0477335 0.0000000 -0.0690834
v -0.0211392 0.0000000 -0.0837253
v -0.0382708 0.0142782 -0.0690834
v -0.0149477 0.0093423 -0.0837253
v -0.0053399 -0.0029300 -0.0000000
v -0.0072818 0.0000000 -0.0000000
v -0.0053399 0.0029300 -0.0000000
v -0.1172727 0.0102264 -0.3382073
v -0.0682012 -0.0000000 -0.3258388
v -0.1172727 0.0000000 -0.3382073
v -0.0163622 -0.0102264 -0.2695106
v -0.0231396 0.0000000 -0.2695106
v -0.0163622 0.0102264 -0.2695106
v -0.0150853 0.0094529 -0.1237935
v -0.0150897 0.0095633 -0.1537134
v -0.0162496 0.0096738 -0.1575420
v -0.0148361 0.0097844 -0.1899730
v -0.0127733 0.0098949 -0.1962683
v -0.0165221 0.0100053 -0.2310884
v -0.0161853 0.0101158 -0.2351724
v -0.0150853 -0.0094529 -0.1237935
v -0.0150897 -0.0095633 -0.1537134
v -0.0162496 -0.0096738 -0.1575420
v -0.0148361 -0.0097844 -0.1899730
v -0.0127413 -0.0098949 -0.1961567
v -0.0165221 -0.0100053 -0.2310884
v -0.0161853 -0.0101158 -0.2351724
v -0.0228895 0.0000000 -0.2358556
v -0.0231561 0.0000000 -0.2322656
v -0.0199086 -0.0000000 -0.1978117
v -0.0211734 0.0000000 -0.1890089
v -0.0226534 0.0000000 -0.1573229
v -0.0213399 0.0000000 -0.1544511
v -0.0211402 0.0000000 -0.1249223
v -0.0194704 0.0122887 -0.1275793
v -0.0196165 0.0124323 -0.1502833
v -0.0194704 -0.0122887 -0.1275793
v -0.0196165 -0.0124323 -0.1502833
v -0.0270410 0.0000000 -0.1496023
v -0.0257068 0.0000000 -0.1305230
v -0.0191783 0.0125760 -0.1616751
v -0.0195532 0.0127196 -0.1845826
v -0.0191783 -0.0125760 -0.1616751
v -0.0195532 -0.0127196 -0.1845826
v -0.0264849 0.0000000 -0.1812609
v -0.0275029 0.0000000 -0.1613904
v -0.1172727 -0.0102264 -0.3382073
v -0.0682012 -0.0102264 -0.3258388
v -0.1186358 -0.0102264 -0.2964918
v -0.0172293 0.0128632 -0.2012349
v -0.0188239 0.0130070 -0.2250295
v -0.0172293 -0.0128632 -0.2012349
v -0.0188239 -0.0130070 -0.2250295
v -0.0282791 0.0000000 -0.2258188
v -0.0253077 -0.0000000 -0.2040422
v -0.0163346 0.0102091 -0.2673734
v -0.0163346 -0.0102091 -0.2673734
v -0.0231006 0.0000000 -0.2673734
v -0.0710893 -0.0102264 -0.2964918
v -0.0163622 -0.0102264 -0.2969137
v -0.0300306 0.0000000 -0.2625646
v -0.0297564 0.0000000 -0.2452735
v -0.0210409 -0.0131506 -0.2423121
v 0.0000000 -0.0144623 -0.2969137
v -0.1186358 0.0102264 -0.3102077
v -0.0210409 0.0131506 -0.2423121
v -0.1186358 -0.0102264 -0.3102077
v -0.1186358 0.0000000 -0.3102077
v -0.0212350 0.0132717 -0.2625646
v -0.0212350 -0.0132717 -0.2625646
v -0.0163622 -0.0102264 -0.3243170
v -0.0163622 0.0102264 -0.3243170
v -0.1186358 0.0102264 -0.2827759
v -0.1186358 -0.0102264 -0.2827759
v -0.1186358 0.0000000 -0.2827759
v -0.0710893 0.0000000 -0.2827759
v -0.0710893 -0.0102264 -0.2827759
v -0.0710893 0.0102264 -0.2827759
v -0.0710893 0.0000000 -0.3102077
v -0.0710893 -0.0102264 -0.3102077
v -0.0710893 0.0102264 -0.3102077
v -0.0118087 -0.0042309 -0.3243170
v -0.0330449 -0.0042309 -0.6849921
v -0.0118087 0.0042309 -0.3243170
v -0.0369138 0.0000000 -0.3243170
v -0.0282585 -0.0042309 -0.3243170
v -0.0282585 0.0042309 -0.3243170
v -0.0118087 0.0042309 -0.6859607
v -0.0330449 0.0042309 -0.6849921
v -0.0282585 0.0042309 -0.6599914
v -0.0118087 -0.0042309 -0.6585875
v -0.0118087 0.0042309 -0.6585875
v -0.0369138 0.0000000 -0.6599914
v -0.0282585 -0.0042309 -0.6599914
v -0.0156620 0.0042309 -0.6709328
v -0.0118087 0.0042309 -0.6733269
v -0.0156620 -0.0042309 -0.6709328
v -0.0118087 -0.0042309 -0.6733269
v -0.0225035 -0.0000000 -0.6699533
v -0.0118087 -0.0042309 -0.6859607
v -0.0398109 0.0000000 -0.6837297
v -0.0282577 0.0000000 -0.9522836
v -0.0369138 0.0000000 -0.9319370
v -0.0197332 0.0042309 -0.6992338
v -0.0118087 -0.0042309 -0.9679006
v -0.0248016 -0.0042309 -0.9396938
v -0.0282585 0.0042309 -0.7239788
v -0.0248016 0.0042309 -0.9396938
v -0.0118087 0.0042309 -0.9679006
v -0.0197332 -0.0042309 -0.6992338
v -0.0118087 0.0042309 -0.6959038
v -0.0118087 -0.0042309 -0.6959038
v -0.0276631 0.0000000 -0.7002132
v -0.0374184 0.0042309 -0.7136631
v -0.0374184 -0.0042309 -0.7136631
v -0.0118087 0.0042309 -0.7099413
v -0.0118087 -0.0042309 -0.7099413
v -0.0434437 0.0000000 -0.7138589
v -0.0130366 0.0000000 -0.9811956
v -0.0282585 -0.0042309 -0.7239788
v -0.0118087 0.0042309 -0.7239788
v -0.0118087 -0.0042309 -0.7239788
v -0.0369138 0.0000000 -0.7239788
v -0.0118087 0.0042309 -0.7531175
v -0.0118087 0.0042309 -0.8113014
v -0.0118087 0.0042309 -0.8287250
v -0.0118087 0.0042309 -0.8461484
v -0.0118087 0.0042309 -0.8635719
v -0.0118087 0.0042309 -0.8809954
v -0.0282585 -0.0042309 -0.7531175
v -0.0244670 -0.0042309 -0.8113014
v -0.0282585 -0.0042309 -0.8287250
v -0.0168843 -0.0042309 -0.8461484
v -0.0282585 -0.0042309 -0.8635719
v -0.0282585 -0.0042309 -0.8809954
v -0.0282585 0.0042309 -0.7531175
v -0.0244670 0.0042309 -0.8113014
v -0.0282585 0.0042309 -0.8287250
v -0.0168843 0.0042309 -0.8461484
v -0.0282585 0.0042309 -0.8635719
v -0.0282585 0.0042309 -0.8809954
v -0.0118087 -0.0042309 -0.8809954
v -0.0118087 -0.0042309 -0.8635719
v -0.0118087 -0.0042309 -0.8461484
v -0.0118087 -0.0042309 -0.8287250
v -0.0118087 -0.0042309 -0.8113014
v -0.0118087 -0.0042309 -0.7531175
v -0.0369138 0.0000000 -0.8809954
v -0.0369138 0.0000000 -0.8635719
v -0.0255396 0.0000000 -0.8461484
v -0.0369138 0.0000000 -0.8287250
v -0.0331223 0.0000000 -0.8113014
v -0.0369138 0.0000000 -0.7531175
v 0.0000000 -0.0201924 -0.0690834
v 0.0000000 -0.0132120 -0.0837253
v 0.0000000 0.0201924 -0.0690834
v 0.0000000 0.0132120 -0.0837253
v 0.0000000 -0.0041435 -0.0000000
v 0.0040360 -0.0029300 -0.0000000
v 0.0000000 0.0029300 -0.0000000
v 0.0000000 0.0041435 -0.0000000
v 0.0000000 -0.0143059 -0.2330082
v 0.0000000 -0.0144623 -0.2695106
v 0.0000000 0.0144623 -0.2695106
v 0.0000000 -0.0141497 -0.2285947
v 0.0004248 -0.0139934 -0.1963992
v 0.0014611 -0.0138372 -0.1921992
v -0.0005066 -0.0136809 -0.1560154
v 0.0000000 -0.0135245 -0.1519324
v -0.0004673 -0.0133683 -0.1210681
v 0.0000000 0.0143059 -0.2330082
v 0.0000000 0.0141497 -0.2285947
v 0.0000000 0.0139934 -0.1963992
v 0.0000000 0.0138372 -0.1921992
v 0.0000000 0.0136809 -0.1560154
v 0.0000000 0.0135245 -0.1519324
v 0.0000000 0.0133683 -0.1210681
v 0.0000000 -0.0175819 -0.1479681
v -0.0004673 -0.0173787 -0.1240364
v 0.0000000 0.0175819 -0.1479681
v 0.0000000 0.0173787 -0.1240364
v 0.0013337 -0.0179883 -0.1875069
v -0.0003858 -0.0177851 -0.1604711
v 0.0000000 0.0179883 -0.1875069
v 0.0000000 0.0177851 -0.1604711
v 0.0000000 -0.0183946 -0.2229592
v -0.0002567 -0.0181914 -0.1987641
v 0.0000000 0.0183946 -0.2229592
v 0.0000000 0.0181914 -0.1987641
v 0.0000000 -0.0144379 -0.2642529
v 0.0000000 0.0144379 -0.2642529
v 0.0000000 -0.0187691 -0.2594443
v 0.0000000 -0.0185978 -0.2401479
v 0.0000000 0.0187691 -0.2594443
v 0.0000000 0.0185978 -0.2401479
v 0.0000000 -0.0144623 -0.3243170
v 0.0000000 0.0144623 -0.3243170
v 0.0000000 0.0042309 -0.3243170
v 0.0139549 -0.0042309 -0.3243170
v 0.0000000 -0.0042309 -0.3243170
v 0.0000000 -0.0042309 -0.6859607
v 0.0139549 -0.0042309 -0.6585875
v 0.0000000 -0.0042309 -0.6585875
v 0.0000000 0.0042309 -0.6585875
v 0.0000000 -0.0042309 -0.6733269
v 0.0139549 -0.0042309 -0.6733269
v 0.0000000 0.0042309 -0.6733269
v 0.0139549 -0.0042309 -0.6859607
v 0.0000000 0.0042309 -0.6859607
v 0.0000000 0.0000708 -1.0000000
v 0.0000000 0.0042309 -0.9822390
v 0.0000000 -0.0042309 -0.9822390
v 0.0000000 -0.0042309 -0.6959038
v 0.0139549 -0.0042309 -0.6959038
v 0.0000000 0.0042309 -0.6959038
v -0.1064515 0.0102264 -0.3659464
v 0.0000000 -0.0042309 -0.7099413
v 0.0139549 -0.0042309 -0.7099413
v 0.0000000 0.0042309 -0.7099413
v -0.1064515 -0.0102264 -0.3659464
v 0.0000000 -0.0042309 -0.7239788
v 0.0139549 -0.0042309 -0.7239788
v 0.0000000 0.0042309 -0.7239788
v 0.0000000 -0.0042309 -0.7531175
v 0.0000000 -0.0042309 -0.8113014
v 0.0000000 -0.0042309 -0.8287250
v 0.0000000 -0.0042309 -0.8461484
v 0.0000000 -0.0042309 -0.8635719
v 0.0000000 -0.0042309 -0.8809954
v -0.1064515 0.0000000 -0.3659464
v 0.0000000 -0.0042309 -0.7531175
v 0.0000000 0.0042309 -0.8809954
v 0.0000000 0.0042309 -0.8635719
v 0.0000000 0.0042309 -0.8461484
v 0.0000000 0.0042309 -0.8287250
v 0.0000000 0.0042309 -0.8113014
v 0.0000000 0.0042309 -0.7531175
v -0.0118087 -0.0042309 -0.4856838
v 0.0000000 0.0042309 -0.4856838
v -0.0330141 0.0000000 -0.4856838
v -0.0243588 0.0042309 -0.4856838
v 0.0000000 -0.0042309 -0.4856838
v -0.0118087 0.0042309 -0.4856838
v -0.0243588 -0.0042309 -0.4856838
v 0.0139549 -0.0042309 -0.4856838
v -0.0682012 0.0102264 -0.3258388
v 0.0000000 -0.0205686 -0.0342492
v -0.0349709 -0.0145442 -0.0456905
v -0.0446098 0.0000000 -0.0456905
v -0.0349709 0.0145442 -0.0456905
v 0.0000000 0.0205686 -0.0342492
v -0.0003363 -0.0133162 -0.1153422
v 0.0007065 -0.0132642 -0.0874558
v 0.0000000 0.0133162 -0.1153422
v 0.0000000 0.0132642 -0.0874558
v -0.0217877 0.0000000 -0.1199258
v -0.0205817 0.0000000 -0.0910155
v -0.0144477 0.0093792 -0.0914788
v -0.0155941 0.0094160 -0.1199621
v -0.0144477 -0.0093792 -0.0914788
v -0.0155941 -0.0094160 -0.1199621
v -0.0029673 -0.0159040 -0.1135611
v 0.0006354 -0.0158419 -0.0912515
v 0.0000000 0.0159040 -0.1127911
v 0.0000000 0.0158419 -0.0912515
v -0.0265014 0.0000000 -0.1148720
v -0.0256166 0.0000000 -0.0941539
v -0.0183134 0.0112019 -0.0947888
v -0.0183636 0.0112459 -0.1162284
v -0.0183134 -0.0112019 -0.0947888
v -0.0183636 -0.0112459 -0.1162284
v 0.0000000 0.0029297 -0.0000000
v 0.0000000 0.0000006 -0.0000000
v 0.0000000 -0.0029292 -0.0000000
v -0.0053399 0.0000005 -0.0000000
v -0.0118087 -0.0042309 -0.3584286
v 0.0000000 0.0042309 -0.3584286
v -0.0599285 0.0000000 -0.3584286
v 0.0139549 -0.0042309 -0.3584286
v -0.0512731 0.0042309 -0.3584286
v 0.0000000 -0.0042309 -0.3584286
v -0.0118087 0.0042309 -0.3584286
v -0.0512731 -0.0042309 -0.3584286
v -0.0340700 0.0042309 -0.3809593
v 0.0000000 -0.0042309 -0.3809593
v -0.0118087 0.0042309 -0.3809593
v -0.0340700 -0.0042309 -0.3809593
v -0.0118087 -0.0042309 -0.3809593
v 0.0000000 0.0042309 -0.3809593
v -0.0427256 0.0000000 -0.3809593
v 0.0139549 -0.0042309 -0.3809593
v -0.0422013 0.0042309 -0.4050467
v 0.0000000 -0.0042309 -0.4050467
v -0.0118087 0.0042309 -0.4050467
v -0.0422013 -0.0042309 -0.4050467
v -0.0118087 -0.0042309 -0.4050467
v 0.0000000 0.0042309 -0.4050467
v -0.0508566 0.0000000 -0.4050467
v 0.0139549 -0.0042309 -0.4050467
v -0.0341367 0.0042309 -0.4180717
v 0.0000000 -0.0042309 -0.4180717
v -0.0118087 0.0042309 -0.4180717
v -0.0341367 -0.0042309 -0.4180717
v -0.0118087 -0.0042309 -0.4180717
v 0.0000000 0.0042309 -0.4180717
v -0.0427920 0.0000000 -0.4180717
v 0.0139549 -0.0042309 -0.4180717
vn 0.3764375 0.6331000 -0.4863000
vn 0.3764375 -0.6331000 -0.4863000
vn 0.3850000 0.7877000 0.0086000
vn 0.3850000 -0.7877000 0.0086000
vn 0.3564375 -0.6909000 0.4442000
vn 0.3564375 0.6909000 0.4442000
vn 0.4026875 -0.6882000 -0.3337000
vn 0.4026875 0.6882000 -0.3337000
vn 0.3441250 -0.8347000 -0.0109000
vn 0.3441250 0.8347000 -0.0109000
vn 0.2947500 -0.8532000 -0.2228000
vn 0.4021875 -0.5967000 0.4794000
vn 0.4021875 0.5967000 0.4794000
vn 0.4009375 -0.7027000 -0.3078000
vn 0.4009375 0.7027000 -0.3078000
vn 0.3761875 -0.7767000 -0.1858000
vn 0.3761875 0.7767000 -0.1858000
vn 0.2947500 0.8542000 -0.2191000
vn 0.3758750 -0.7828000 -0.1599000
vn 0.3758125 0.7828000 -0.1599000
vn 0.3850625 0.7877000 -0.0000000
vn 0.3849375 0.7875000 -0.0251000
vn 0.3836875 0.7849000 0.0835000
vn 0.3734375 0.7639000 -0.2438000
vn 0.3734375 0.7639000 0.2438000
vn 0.3850625 -0.7877000 -0.0000000
vn 0.3849375 -0.7875000 -0.0251000
vn 0.3836875 -0.7849000 0.0835000
vn 0.3734375 -0.7639000 -0.2438000
vn 0.3734375 -0.7639000 0.2438000
vn 0.3844375 -0.7865000 -0.0556000
vn 0.3844375 0.7865000 -0.0556000
vn 0.3726875 0.7624000 0.2514000
vn 0.3726875 -0.7624000 0.2514000
vn 0.3693750 0.7557000 -0.2821000
vn 0.3693750 -0.7557000 -0.2821000
vn 0.3818125 0.7811000 0.1289000
vn 0.3818125 -0.7811000 0.1289000
vn 0.3745625 0.7662000 -0.2319000
vn 0.3745625 -0.7662000 -0.2319000
vn -0.3764375 0.6331000 -0.4863000
vn -0.3764375 -0.6331000 -0.4863000
vn -0.3850000 0.7877000 0.0086000
vn -0.3850000 -0.7877000 0.0086000
vn -0.3564375 -0.6909000 0.4442000
vn -0.3564375 0.6909000 0.4442000
vn -0.4026875 -0.6882000 -0.3337000
vn -0.4026875 0.6882000 -0.3337000
vn -0.3441250 -0.8347000 -0.0109000
vn -0.3441250 0.8347000 -0.0109000
vn -0.2947500 -0.8532000 -0.2228000
vn -0.4021875 -0.5967000 0.4794000
vn -0.4021875 0.5967000 0.4794000
vn -0.4009375 -0.7027000 -0.3078000
vn -0.4009375 0.7027000 -0.3078000
vn -0.3761875 -0.7767000 -0.1858000
vn -0.3761875 0.7767000 -0.1858000
vn -0.2947500 0.8542000 -0.2191000
vn -0.3758750 -0.7828000 -0.1599000
vn -0.3758125 0.7828000 -0.1599000
vn -0.3850625 0.7877000 -0.0000000
vn -0.3849375 0.7875000 -0.0251000
vn -0.3836875 0.7849000 0.0835000
vn -0.3734375 0.7639000 -0.2438000
vn -0.3734375 0.7639000 0.2438000
vn -0.3850625 -0.7877000 -0.0000000
vn -0.3849375 -0.7875000 -0.0251000
vn -0.3836875 -0.7849000 0.0835000
vn -0.3734375 -0.7639000 -0.2438000
vn -0.3734375 -0.7639000 0.2438000
vn -0.3844375 -0.7865000 -0.0556000
vn -0.3844375 0.7865000 -0.0556000
vn -0.3726875 0.7624000 0.2514000
vn -0.3726875 -0.7624000 0.2514000
vn -0.3693750 0.7557000 -0.2821000
vn -0.3693750 -0.7557000 -0.2821000
vn -0.3818125 0.7811000 0.1289000
vn -0.3818125 -0.7811000 0.1289000
vn -0.3745625 0.7662000 -0.2319000
vn -0.3745625 -0.7662000 -0.2319000
vn 0.0000000 1.0000000 -0.0000000
vn -0.0000000 -1.0000000 0.0000000
vn 0.4445625 -0.2780000 -0.6456000
vn 0.2265000 0.6829000 0.6343000
vn 0.5361875 0.2285000 -0.4603000
vn 0.1501250 0.8116000 -0.5325000
vn 0.4736875 -0.3264000 0.5648000
vn 0.2713750 0.5386000 0.7221000
vn 0.5163750 -0.3953000 -0.4015000
vn 0.4445625 0.2780000 -0.6456000
vn 0.4736875 0.3264000 0.5648000
vn 0.5111875 -0.1871000 0.5441000
vn 0.2552500 -0.6846000 -0.6038000
vn 0.2392500 0.5838000 0.7160000
vn 0.5111875 0.1871000 0.5441000
vn 0.5163750 0.3953000 -0.4015000
vn 0.2447500 -0.9201000 0.0052000
vn 0.2425625 0.9216000 0.0076000
vn 0.5910000 -0.3246000 0.0221000
vn 0.5910000 0.3246000 0.0221000
vn 0.0978125 0.6902000 -0.7064000
vn 0.2771250 -0.5332000 0.7205000
vn 0.0978125 -0.6902000 -0.7064000
vn 0.2432500 -0.9212000 -0.0002000
vn 0.2479375 0.9179000 0.0082000
vn 0.5850625 -0.3518000 -0.0076000
vn 0.5850625 0.3518000 -0.0076000
vn 0.5361875 -0.2285000 -0.4603000
vn 0.2718750 0.6719000 -0.5994000
vn 0.2316875 -0.6811000 0.6314000
vn 0.2714375 -0.9007000 0.0141000
vn 0.2700000 0.9018000 0.0155000
vn 0.5763125 -0.3824000 0.0590000
vn 0.5763125 0.3824000 0.0590000
vn 0.2350000 -0.5806000 0.7222000
vn 0.1501250 -0.8116000 -0.5325000
vn 0.5130000 0.2443000 0.5163000
vn 0.5141875 -0.2438000 0.5135000
vn 0.0920000 -0.7609000 -0.6319000
vn 0.2563750 0.7731000 0.4838000
vn 0.4438125 0.2942000 -0.6397000
vn 0.5346875 -0.2868000 0.4311000
vn 0.5346875 0.2868000 0.4311000
vn 0.4438125 -0.2942000 -0.6397000
vn 0.2400000 -0.9233000 0.0080000
vn 0.2400000 0.9233000 0.0080000
vn 0.5776250 -0.3819000 0.0084000
vn 0.5776250 0.3819000 0.0084000
vn 0.2563750 -0.7731000 0.4838000
vn 0.0920000 0.7609000 -0.6319000
vn 0.4215000 -0.3109000 0.6697000
vn 0.5051875 0.3170000 -0.4962000
vn 0.4215000 0.3109000 0.6697000
vn 0.0540625 -0.7510000 -0.6546000
vn 0.5738750 0.3959000 0.0131000
vn 0.5738750 -0.3959000 0.0131000
vn 0.2353125 0.9264000 0.0026000
vn 0.2518750 -0.9149000 0.0233000
vn 0.5051875 -0.3170000 -0.4962000
vn 0.3038750 0.6592000 0.5736000
vn 0.0618125 0.8011000 -0.5903000
vn 0.2946250 -0.6674000 0.5765000
vn -0.4445625 -0.2780000 -0.6456000
vn -0.2265000 0.6829000 0.6343000
vn -0.5361875 0.2285000 -0.4603000
vn -0.1501250 0.8116000 -0.5325000
vn -0.4736875 -0.3264000 0.5648000
vn -0.2713750 0.5386000 0.7221000
vn -0.5163750 -0.3953000 -0.4015000
vn -0.4445625 0.2780000 -0.6456000
vn -0.4736875 0.3264000 0.5648000
vn -0.5111875 -0.1871000 0.5441000
vn -0.2552500 -0.6846000 -0.6038000
vn -0.2392500 0.5838000 0.7160000
vn -0.5111875 0.1871000 0.5441000
vn -0.5163750 0.3953000 -0.4015000
vn -0.2447500 -0.9201000 0.0052000
vn -0.2425625 0.9216000 0.0076000
vn -0.5910000 -0.3246000 0.0221000
vn -0.5910000 0.3246000 0.0221000
vn -0.0978125 0.6902000 -0.7064000
vn -0.2771250 -0.5332000 0.7205000
vn -0.0978125 -0.6902000 -0.7064000
vn -0.2432500 -0.9212000 -0.0002000
vn -0.2479375 0.9179000 0.0082000
vn -0.5850625 -0.3518000 -0.0076000
vn -0.5850625 0.3518000 -0.0076000
vn -0.5361875 -0.2285000 -0.4603000
vn -0.2718750 0.6719000 -0.5994000
vn -0.2316875 -0.6811000 0.6314000
vn -0.2714375 -0.9007000 0.0141000
vn -0.2700000 0.9018000 0.0155000
vn -0.5763125 -0.3824000 0.0590000
vn -0.5763125 0.3824000 0.0590000
vn -0.2350000 -0.5806000 0.7222000
vn -0.1501250 -0.8116000 -0.5325000
vn -0.5130000 0.2443000 0.5163000
vn -0.5141875 -0.2438000 0.5135000
vn -0.0920000 -0.7609000 -0.6319000
vn -0.2563750 0.7731000 0.4838000
vn -0.4438125 0.2942000 -0.6397000
vn -0.5346875 -0.2868000 0.4311000
vn -0.5346875 0.2868000 0.4311000
vn -0.4438125 -0.2942000 -0.6397000
vn -0.2400000 -0.9233000 0.0080000
vn -0.2400000 0.9233000 0.0080000
vn -0.5776250 -0.3819000 0.0084000
vn -0.5776250 0.3819000 0.0084000
vn -0.2563750 -0.7731000 0.4838000
vn -0.0920000 0.7609000 -0.6319000
vn -0.4215000 -0.3109000 0.6697000
vn -0.5051875 0.3170000 -0.4962000
vn -0.4215000 0.3109000 0.6697000
vn -0.0540625 -0.7510000 -0.6546000
vn -0.5738750 0.3959000 0.0131000
vn -0.5738750 -0.3959000 0.0131000
vn -0.2353125 0.9264000 0.0026000
vn -0.2518750 -0.9149000 0.0233000
vn -0.5051875 -0.3170000 -0.4962000
vn -0.3038750 0.6592000 0.5736000
vn -0.0618125 0.8011000 -0.5903000
vn -0.2946250 -0.6674000 0.5765000
vn 0.5773750 0.3827000 0.0106000
vn 0.2411250 -0.9226000 -0.0010000
vn 0.5773750 -0.3827000 0.0106000
vn 0.2396875 0.9235000 0.0061000
vn 0.2455625 -0.9159000 0.0826000
vn 0.2531250 -0.9143000 -0.0023000
vn 0.2383125 -0.9243000 0.0196000
vn 0.2396875 -0.9235000 0.0061000
vn 0.2351250 0.9265000 -0.0039000
vn 0.2410000 0.9203000 0.0664000
vn 0.2689375 0.9022000 -0.0299000
vn 0.2383125 0.9242000 0.0196000
vn 0.5766250 -0.3786000 -0.0740000
vn 0.5658125 -0.3664000 0.2149000
vn 0.5689375 -0.3948000 -0.1246000
vn 0.5761250 -0.3856000 -0.0397000
vn 0.5766250 0.3786000 -0.0740000
vn 0.5658125 0.3664000 0.2149000
vn 0.5694375 0.3935000 -0.1226000
vn 0.5761250 0.3856000 -0.0397000
vn 0.5777500 0.3794000 -0.0397000
vn 0.5777500 -0.3794000 -0.0397000
vn 0.2426250 0.9216000 -0.0034000
vn 0.2361250 -0.9257000 -0.0176000
vn -0.5773750 0.3827000 0.0106000
vn -0.2411250 -0.9226000 -0.0010000
vn -0.5773750 -0.3827000 0.0106000
vn -0.2396875 0.9235000 0.0061000
vn -0.2455625 -0.9159000 0.0826000
vn -0.2531250 -0.9143000 -0.0023000
vn -0.2383125 -0.9243000 0.0196000
vn -0.2396875 -0.9235000 0.0061000
vn -0.2351250 0.9265000 -0.0039000
vn -0.2410000 0.9203000 0.0664000
vn -0.2689375 0.9022000 -0.0299000
vn -0.2383125 0.9242000 0.0196000
vn -0.5766250 -0.3786000 -0.0740000
vn -0.5658125 -0.3664000 0.2149000
vn -0.5689375 -0.3948000 -0.1246000
vn -0.5761250 -0.3856000 -0.0397000
vn -0.5766250 0.3786000 -0.0740000
vn -0.5658125 0.3664000 0.2149000
vn -0.5694375 0.3935000 -0.1226000
vn -0.5761250 0.3856000 -0.0397000
vn -0.5777500 0.3794000 -0.0397000
vn -0.5777500 -0.3794000 -0.0397000
vn -0.2426250 0.9216000 -0.0034000
vn -0.2361250 -0.9257000 -0.0176000
vn 0.1558125 -0.8474000 -0.4689000
vn 0.3984375 -0.2641000 -0.7237000
vn 0.3984375 0.2641000 -0.7237000
vn 0.1558125 0.8474000 -0.4689000
vn 0.2575625 0.8257000 0.3851000
vn 0.5222500 -0.3461000 0.4267000
vn 0.2575625 -0.8257000 0.3851000
vn 0.5222500 0.3461000 0.4267000
vn -0.5368750 0.0000000 -0.5120000
vn -0.6208750 0.0000000 0.1147000
vn 0.6246875 0.0000000 -0.0304000
vn 0.6071875 0.0000000 -0.2369000
vn 0.2391875 -0.9239000 -0.0000000
vn 0.1769375 0.3511000 -0.8925000
vn 0.2380625 0.0789000 0.9213000
vn 0.0000000 0.0000000 1.0000000
vn 0.2391875 0.9239000 -0.0000000
vn 0.3005000 -0.1799000 -0.8582000
vn 0.0000000 0.0000000 -1.0000000
vn 0.2380625 -0.0789000 0.9213000
vn 0.3005000 0.1799000 -0.8582000
vn 0.1769375 -0.3511000 -0.8925000
vn 0.1575000 -0.9677000 -0.0018000
vn 0.5756875 0.3816000 0.0769000
vn 0.5756875 -0.3816000 0.0769000
vn 0.1575000 0.9677000 -0.0018000
vn 0.6250000 0.0000000 -0.0000000
vn -0.1558125 -0.8474000 -0.4689000
vn -0.3984375 -0.2641000 -0.7237000
vn -0.3984375 0.2641000 -0.7237000
vn -0.1558125 0.8474000 -0.4689000
vn -0.2575625 0.8257000 0.3851000
vn -0.5222500 -0.3461000 0.4267000
vn -0.2575625 -0.8257000 0.3851000
vn -0.5222500 0.3461000 0.4267000
vn 0.5368750 0.0000000 -0.5120000
vn 0.6208750 0.0000000 0.1147000
vn -0.6246875 0.0000000 -0.0304000
vn -0.6071875 0.0000000 -0.2369000
vn -0.2391875 -0.9239000 -0.0000000
vn -0.1769375 0.3511000 -0.8925000
vn -0.2380625 0.0789000 0.9213000
vn -0.2391875 0.9239000 -0.0000000
vn -0.3005000 -0.1799000 -0.8582000
vn -0.2380625 -0.0789000 0.9213000
vn -0.3005000 0.1799000 -0.8582000
vn -0.1769375 -0.3511000 -0.8925000
vn -0.1575000 -0.9677000 -0.0018000
vn -0.5756875 0.3816000 0.0769000
vn -0.5756875 -0.3816000 0.0769000
vn -0.1575000 0.9677000 -0.0018000
vn -0.6250000 0.0000000 -0.0000000
s off
f 91//1 94//1 100//1 96//1
f 94//2 95//2 98//2 100//2
f 175//3 94//3 91//3 176//3
f 178//4 95//4 94//4 175//4
f 100//5 98//5 84//5 102//5
f 96//6 100//6 102//6 90//6
f 102//7 84//7 111//7 114//7
f 90//8 102//8 114//8 105//8
f 136//9 107//9 104//9 149//9
f 149//10 104//10 109//10 142//10
f 106//11 438//11 436//11 120//11
f 114//12 111//12 116//12 119//12
f 105//13 114//13 119//13 115//13
f 119//14 116//14 121//14 124//14
f 115//15 119//15 124//15 108//15
f 106//16 120//16 103//16 107//16
f 120//17 110//17 109//17 103//17
f 120//18 436//18 437//18 110//18
f 107//19 103//19 104//19
f 103//20 109//20 104//20
f 124//21 154//21 137//21 108//21
f 154//22 153//22 138//22 137//22
f 153//23 152//23 139//23 138//23
f 152//24 151//24 140//24 139//24
f 151//25 150//25 141//25 140//25
f 150//21 149//21 142//21 141//21
f 121//26 131//26 154//26 124//26
f 131//27 132//27 153//27 154//27
f 132//28 133//28 152//28 153//28
f 133//29 134//29 151//29 152//29
f 134//30 135//30 150//30 151//30
f 135//26 136//26 149//26 150//26
f 221//31 178//31 175//31 223//31
f 223//32 175//32 176//32 219//32
f 86//33 202//33 204//33 88//33
f 87//34 206//34 202//34 86//34
f 202//35 211//35 207//35 204//35
f 206//36 209//36 211//36 202//36
f 211//37 217//37 213//37 207//37
f 209//38 215//38 217//38 211//38
f 217//39 223//39 219//39 213//39
f 215//40 221//40 223//40 217//40
f 316//41 321//41 325//41 319//41
f 319//42 325//42 323//42 320//42
f 466//43 467//43 316//43 319//43
f 470//44 466//44 319//44 320//44
f 325//45 327//45 309//45 323//45
f 321//46 315//46 327//46 325//46
f 327//47 339//47 336//47 309//47
f 315//48 330//48 339//48 327//48
f 361//49 374//49 329//49 332//49
f 374//50 367//50 334//50 329//50
f 331//51 345//51 436//51 438//51
f 339//52 344//52 341//52 336//52
f 330//53 340//53 344//53 339//53
f 344//54 349//54 346//54 341//54
f 340//55 333//55 349//55 344//55
f 331//56 332//56 328//56 345//56
f 345//57 328//57 334//57 335//57
f 345//58 335//58 437//58 436//58
f 332//59 329//59 328//59
f 328//60 329//60 334//60
f 349//61 333//61 362//61 379//61
f 379//62 362//62 363//62 378//62
f 378//63 363//63 364//63 377//63
f 377//64 364//64 365//64 376//64
f 376//65 365//65 366//65 375//65
f 375//61 366//61 367//61 374//61
f 346//66 349//66 379//66 356//66
f 356//67 379//67 378//67 357//67
f 357//68 378//68 377//68 358//68
f 358//69 377//69 376//69 359//69
f 359//70 376//70 375//70 360//70
f 360//66 375//66 374//66 361//66
f 529//71 532//71 466//71 470//71
f 532//72 526//72 467//72 466//72
f 311//73 313//73 506//73 504//73
f 312//74 311//74 504//74 509//74
f 504//75 506//75 510//75 516//75
f 509//76 504//76 516//76 513//76
f 516//77 510//77 518//77 524//77
f 513//78 516//78 524//78 521//78
f 524//79 518//79 526//79 532//79
f 521//80 524//80 532//80 529//80
f 93//81 91//81 96//81 97//81
f 95//82 92//82 99//82 98//82
f 430//81 93//81 97//81 433//81
f 92//82 429//82 431//82 99//82
f 468//82 429//82 92//82 174//82
f 177//81 93//81 430//81 465//81
f 176//81 91//81 93//81 177//81
f 178//82 174//82 92//82 95//82
f 97//81 96//81 90//81 89//81
f 98//82 99//82 101//82 84//82
f 433//81 97//81 89//81 435//81
f 99//82 431//82 427//82 101//82
f 101//82 427//82 439//82 113//82
f 89//81 90//81 105//81 112//81
f 84//82 101//82 113//82 111//82
f 435//81 89//81 112//81 441//81
f 136//82 143//82 106//82 107//82
f 142//81 109//81 110//81 130//81
f 441//81 112//81 117//81 445//81
f 113//82 439//82 443//82 118//82
f 112//81 105//81 115//81 117//81
f 111//82 113//82 118//82 116//82
f 118//82 443//82 447//82 123//82
f 117//81 115//81 108//81 122//81
f 116//82 118//82 123//82 121//82
f 445//81 117//81 122//81 449//81
f 130//81 110//81 437//81 458//81
f 447//82 450//82 148//82 123//82
f 450//82 451//82 147//82 148//82
f 451//82 452//82 146//82 147//82
f 452//82 453//82 145//82 146//82
f 453//82 454//82 144//82 145//82
f 454//82 455//82 143//82 144//82
f 122//81 125//81 463//81 449//81
f 125//81 126//81 462//81 463//81
f 126//81 127//81 461//81 462//81
f 127//81 128//81 460//81 461//81
f 128//81 129//81 459//81 460//81
f 129//81 130//81 458//81 459//81
f 108//81 137//81 125//81 122//81
f 137//81 138//81 126//81 125//81
f 138//81 139//81 127//81 126//81
f 139//81 140//81 128//81 127//81
f 140//81 141//81 129//81 128//81
f 141//81 142//81 130//81 129//81
f 121//82 123//82 148//82 131//82
f 131//82 148//82 147//82 132//82
f 132//82 147//82 146//82 133//82
f 133//82 146//82 145//82 134//82
f 134//82 145//82 144//82 135//82
f 135//82 144//82 143//82 136//82
f 455//82 438//82 106//82 143//82
f 165//82 166//82 431//82 429//82
f 468//82 179//82 165//82 429//82
f 166//82 167//82 427//82 431//82
f 167//82 168//82 439//82 427//82
f 168//82 170//82 443//82 439//82
f 170//82 172//82 447//82 443//82
f 447//82 172//82 457//82 450//82
f 527//82 224//82 179//82 468//82
f 221//82 222//82 174//82 178//82
f 219//81 176//81 177//81 220//81
f 220//81 177//81 465//81 531//81
f 527//82 468//82 174//82 222//82
f 426//82 507//82 201//82 83//82
f 85//81 205//81 503//81 424//81
f 88//81 204//81 205//81 85//81
f 87//82 83//82 201//82 206//82
f 426//82 164//82 203//82 507//82
f 507//82 511//82 210//82 201//82
f 205//81 208//81 515//81 503//81
f 204//81 207//81 208//81 205//81
f 206//82 201//82 210//82 209//82
f 507//82 203//82 212//82 511//82
f 511//82 519//82 216//82 210//82
f 208//81 214//81 523//81 515//81
f 207//81 213//81 214//81 208//81
f 209//82 210//82 216//82 215//82
f 511//82 212//82 218//82 519//82
f 519//82 527//82 222//82 216//82
f 214//81 220//81 531//81 523//81
f 213//81 219//81 220//81 214//81
f 215//82 216//82 222//82 221//82
f 519//82 218//82 224//82 527//82
f 318//81 322//81 321//81 316//81
f 320//82 323//82 324//82 317//82
f 430//81 433//81 322//81 318//81
f 317//82 324//82 431//82 429//82
f 468//82 464//82 317//82 429//82
f 469//81 465//81 430//81 318//81
f 467//81 469//81 318//81 316//81
f 470//82 320//82 317//82 464//82
f 322//81 314//81 315//81 321//81
f 323//82 309//82 326//82 324//82
f 433//81 435//81 314//81 322//81
f 324//82 326//82 427//82 431//82
f 326//82 338//82 439//82 427//82
f 314//81 337//81 330//81 315//81
f 309//82 336//82 338//82 326//82
f 435//81 441//81 337//81 314//81
f 361//82 332//82 331//82 368//82
f 367//81 355//81 335//81 334//81
f 441//81 445//81 342//81 337//81
f 338//82 343//82 443//82 439//82
f 337//81 342//81 340//81 330//81
f 336//82 341//82 343//82 338//82
f 343//82 348//82 447//82 443//82
f 342//81 347//81 333//81 340//81
f 341//82 346//82 348//82 343//82
f 445//81 449//81 347//81 342//81
f 355//81 458//81 437//81 335//81
f 447//82 348//82 373//82 450//82
f 450//82 373//82 372//82 451//82
f 451//82 372//82 371//82 452//82
f 452//82 371//82 370//82 453//82
f 453//82 370//82 369//82 454//82
f 454//82 369//82 368//82 455//82
f 347//81 449//81 463//81 350//81
f 350//81 463//81 462//81 351//81
f 351//81 462//81 461//81 352//81
f 352//81 461//81 460//81 353//81
f 353//81 460//81 459//81 354//81
f 354//81 459//81 458//81 355//81
f 333//81 347//81 350//81 362//81
f 362//81 350//81 351//81 363//81
f 363//81 351//81 352//81 364//81
f 364//81 352//81 353//81 365//81
f 365//81 353//81 354//81 366//81
f 366//81 354//81 355//81 367//81
f 346//82 356//82 373//82 348//82
f 356//82 357//82 372//82 373//82
f 357//82 358//82 371//82 372//82
f 358//82 359//82 370//82 371//82
f 359//82 360//82 369//82 370//82
f 360//82 361//82 368//82 369//82
f 455//82 368//82 331//82 438//82
f 428//82 429//82 431//82 432//82
f 468//82 429//82 428//82 471//82
f 432//82 431//82 427//82 434//82
f 434//82 427//82 439//82 440//82
f 440//82 439//82 443//82 444//82
f 444//82 443//82 447//82 448//82
f 447//82 450//82 457//82 448//82
f 527//82 468//82 471//82 533//82
f 529//82 470//82 464//82 530//82
f 526//81 528//81 469//81 467//81
f 528//81 531//81 465//81 469//81
f 527//82 530//82 464//82 468//82
f 426//82 308//82 502//82 507//82
f 310//81 424//81 503//81 508//81
f 313//81 310//81 508//81 506//81
f 312//82 509//82 502//82 308//82
f 426//82 507//82 505//82 425//82
f 507//82 502//82 514//82 511//82
f 508//81 503//81 515//81 512//81
f 506//81 508//81 512//81 510//81
f 509//82 513//82 514//82 502//82
f 507//82 511//82 517//82 505//82
f 511//82 514//82 522//82 519//82
f 512//81 515//81 523//81 520//81
f 510//81 512//81 520//81 518//81
f 513//82 521//82 522//82 514//82
f 511//82 519//82 525//82 517//82
f 519//82 522//82 530//82 527//82
f 520//81 523//81 531//81 528//81
f 518//81 520//81 528//81 526//81
f 521//82 529//82 530//82 522//82
f 519//82 527//82 533//82 525//82
f 24//83 35//83 41//83 40//83
f 401//84 18//84 43//84 411//84
f 33//85 19//85 44//85 47//85
f 21//86 398//86 414//86 53//86
f 34//87 25//87 45//87 48//87
f 403//88 16//88 37//88 407//88
f 28//89 31//89 56//89 55//89
f 35//90 17//90 38//90 41//90
f 18//91 34//91 48//91 43//91
f 36//92 23//92 39//92 42//92
f 157//93 26//93 46//93 161//93
f 399//94 20//94 52//94 415//94
f 16//95 36//95 42//95 37//95
f 31//96 21//96 53//96 56//96
f 160//97 404//97 40//97 39//97
f 37//98 38//98 406//98 407//98
f 39//99 40//99 41//99 42//99
f 42//100 41//100 38//100 37//100
f 17//101 402//101 406//101 38//101
f 23//102 159//102 160//102 39//102
f 395//103 24//103 40//103 404//103
f 162//104 161//104 46//104 45//104
f 43//105 44//105 410//105 411//105
f 45//106 46//106 47//106 48//106
f 48//107 47//107 44//107 43//107
f 26//108 33//108 47//108 46//108
f 19//109 400//109 410//109 44//109
f 25//110 158//110 162//110 45//110
f 163//111 412//111 55//111 54//111
f 52//112 53//112 414//112 415//112
f 54//113 55//113 56//113 57//113
f 57//114 56//114 53//114 52//114
f 27//115 156//115 163//115 54//115
f 391//116 28//116 55//116 412//116
f 20//117 32//117 57//117 52//117
f 32//118 27//118 54//118 57//118
f 416//119 59//119 71//119 418//119
f 397//120 22//120 67//120 421//120
f 60//121 58//121 70//121 63//121
f 30//122 29//122 65//122 64//122
f 22//123 30//123 64//123 67//123
f 59//124 60//124 63//124 71//124
f 419//125 418//125 71//125 65//125
f 67//126 70//126 420//126 421//126
f 65//127 71//127 63//127 64//127
f 64//128 63//128 70//128 67//128
f 29//129 388//129 419//129 65//129
f 58//130 417//130 420//130 70//130
f 187//131 190//131 198//131 195//131
f 186//132 189//132 197//132 194//132
f 188//133 187//133 195//133 196//133
f 184//134 191//134 199//134 192//134
f 195//135 194//135 197//135 196//135
f 198//136 199//136 194//136 195//136
f 196//137 197//137 490//137 491//137
f 193//138 192//138 199//138 198//138
f 191//139 186//139 194//139 199//139
f 481//140 188//140 196//140 491//140
f 189//141 480//141 490//141 197//141
f 190//142 185//142 193//142 198//142
f 248//143 264//143 265//143 259//143
f 401//144 411//144 267//144 242//144
f 257//145 271//145 268//145 243//145
f 245//146 277//146 414//146 398//146
f 258//147 272//147 269//147 249//147
f 403//148 407//148 261//148 240//148
f 252//149 279//149 280//149 255//149
f 259//150 265//150 262//150 241//150
f 242//151 267//151 272//151 258//151
f 260//152 266//152 263//152 247//152
f 393//153 408//153 270//153 250//153
f 399//154 415//154 276//154 244//154
f 240//155 261//155 266//155 260//155
f 255//156 280//156 277//156 245//156
f 405//157 263//157 264//157 404//157
f 261//158 407//158 406//158 262//158
f 263//159 266//159 265//159 264//159
f 266//160 261//160 262//160 265//160
f 241//161 262//161 406//161 402//161
f 247//162 263//162 405//162 396//162
f 395//163 404//163 264//163 248//163
f 409//164 269//164 270//164 408//164
f 267//165 411//165 410//165 268//165
f 269//166 272//166 271//166 270//166
f 272//167 267//167 268//167 271//167
f 250//168 270//168 271//168 257//168
f 243//169 268//169 410//169 400//169
f 249//170 269//170 409//170 394//170
f 413//171 278//171 279//171 412//171
f 276//172 415//172 414//172 277//172
f 278//173 281//173 280//173 279//173
f 281//174 276//174 277//174 280//174
f 251//175 278//175 413//175 392//175
f 391//176 412//176 279//176 252//176
f 244//177 276//177 281//177 256//177
f 256//178 281//178 278//178 251//178
f 416//179 418//179 296//179 283//179
f 397//180 421//180 292//180 246//180
f 284//181 287//181 295//181 282//181
f 254//182 288//182 289//182 253//182
f 246//183 292//183 288//183 254//183
f 283//184 296//184 287//184 284//184
f 419//185 289//185 296//185 418//185
f 292//186 421//186 420//186 295//186
f 289//187 288//187 287//187 296//187
f 288//188 292//188 295//188 287//188
f 253//189 289//189 419//189 388//189
f 282//190 295//190 420//190 417//190
f 483//191 493//191 496//191 486//191
f 482//192 492//192 495//192 485//192
f 484//193 494//193 493//193 483//193
f 478//194 488//194 497//194 487//194
f 493//195 494//195 495//195 492//195
f 496//196 493//196 492//196 497//196
f 494//197 491//197 490//197 495//197
f 489//198 496//198 497//198 488//198
f 487//199 497//199 492//199 482//199
f 481//200 491//200 494//200 484//200
f 485//201 495//201 490//201 480//201
f 486//202 496//202 489//202 479//202
f 60//203 14//203 15//203 58//203
f 184//204 159//204 23//204 191//204
f 59//205 13//205 14//205 60//205
f 58//206 15//206 390//206 417//206
f 395//207 158//207 25//207 24//207
f 157//208 156//208 27//208 26//208
f 391//209 388//209 29//209 28//209
f 416//210 389//210 13//210 59//210
f 189//211 16//211 403//211 480//211
f 17//212 18//212 401//212 402//212
f 19//213 20//213 399//213 400//213
f 21//214 22//214 397//214 398//214
f 191//215 23//215 36//215 186//215
f 24//216 25//216 34//216 35//216
f 26//217 27//217 32//217 33//217
f 28//218 29//218 30//218 31//218
f 186//219 36//219 16//219 189//219
f 35//220 34//220 18//220 17//220
f 33//221 32//221 20//221 19//221
f 31//222 30//222 22//222 21//222
f 4//223 187//223 188//223 6//223
f 2//224 190//224 187//224 4//224
f 6//225 188//225 481//225 383//225
f 381//226 185//226 190//226 2//226
f 284//227 282//227 239//227 238//227
f 478//228 487//228 247//228 396//228
f 283//229 284//229 238//229 237//229
f 282//230 417//230 390//230 239//230
f 395//231 248//231 249//231 394//231
f 393//232 250//232 251//232 392//232
f 391//233 252//233 253//233 388//233
f 416//234 283//234 237//234 389//234
f 485//235 480//235 403//235 240//235
f 241//236 402//236 401//236 242//236
f 243//237 400//237 399//237 244//237
f 245//238 398//238 397//238 246//238
f 487//239 482//239 260//239 247//239
f 248//240 259//240 258//240 249//240
f 250//241 257//241 256//241 251//241
f 252//242 255//242 254//242 253//242
f 482//243 485//243 240//243 260//243
f 259//244 241//244 242//244 258//244
f 257//245 243//245 244//245 256//245
f 255//246 245//246 246//246 254//246
f 228//247 230//247 484//247 483//247
f 226//248 228//248 483//248 486//248
f 230//249 383//249 481//249 484//249
f 381//250 226//250 486//250 479//250
f 380//251 381//251 2//251 1//251
f 1//252 2//252 4//252 3//252
f 3//253 4//253 6//253 5//253
f 5//254 6//254 383//254 382//254
f 183//255 477//255 387//255 9//255
f 181//256 182//256 8//256 7//256
f 473//257 181//257 7//257 384//257
f 182//258 183//258 9//258 8//258
f 180//259 169//259 173//259 11//259
f 81//260 80//260 11//260 50//260
f 82//81 66//81 10//81 180//81
f 66//261 69//261 12//261 10//261
f 68//82 81//82 50//82 49//82
f 180//81 10//81 169//81
f 10//262 12//262 173//262 169//262
f 13//263 389//263 290//263 62//263
f 78//82 61//82 51//82 75//82
f 13//82 62//82 61//82 78//82
f 73//264 82//264 88//264 85//264
f 15//265 14//265 77//265 79//265
f 62//263 290//263 422//263 72//263
f 80//260 82//260 180//260 11//260
f 387//266 498//266 9//266
f 390//267 15//267 73//267 423//267
f 80//268 81//268 87//268 86//268
f 61//82 81//82 68//82 51//82
f 69//261 68//261 49//261 12//261
f 62//82 72//82 81//82 61//82
f 72//269 422//269 426//269 83//269
f 73//81 15//81 79//81 82//81
f 14//270 13//270 78//270 77//270
f 82//271 80//271 86//271 88//271
f 423//269 73//269 85//269 424//269
f 81//272 72//272 83//272 87//272
f 12//262 49//262 171//262 173//262
f 49//82 50//82 171//82
f 82//81 79//81 74//81 66//81
f 380//273 1//273 181//273 473//273
f 3//274 5//274 183//274 182//274
f 1//275 3//275 182//275 181//275
f 5//276 382//276 477//276 183//276
f 500//266 155//266 384//266
f 9//266 200//266 8//266
f 8//266 200//266 7//266
f 7//266 500//266 384//266
f 500//266 7//266 200//266 499//266
f 499//266 200//266 9//266 498//266
f 74//266 79//266 77//266 78//266 75//266 76//266
f 74//277 76//277 69//277 66//277
f 51//277 68//277 69//277 76//277 75//277
f 50//259 11//259 173//259 171//259
f 380//278 225//278 226//278 381//278
f 225//279 227//279 228//279 226//279
f 227//280 229//280 230//280 228//280
f 229//281 382//281 383//281 230//281
f 476//282 233//282 387//282 477//282
f 474//283 231//283 232//283 475//283
f 473//284 384//284 231//284 474//284
f 475//285 232//285 233//285 476//285
f 472//286 235//286 456//286 442//286
f 306//287 274//287 235//287 305//287
f 307//81 472//81 234//81 291//81
f 291//288 234//288 236//288 294//288
f 293//82 273//82 274//82 306//82
f 472//81 442//81 234//81
f 234//289 442//289 456//289 236//289
f 237//290 286//290 290//290 389//290
f 303//82 300//82 275//82 285//82
f 237//82 303//82 285//82 286//82
f 298//291 310//291 313//291 307//291
f 239//292 304//292 302//292 238//292
f 286//290 297//290 422//290 290//290
f 305//287 235//287 472//287 307//287
f 387//266 233//266 498//266
f 390//293 423//293 298//293 239//293
f 305//294 311//294 312//294 306//294
f 285//82 275//82 293//82 306//82
f 294//288 236//288 273//288 293//288
f 286//82 285//82 306//82 297//82
f 297//269 308//269 426//269 422//269
f 298//81 307//81 304//81 239//81
f 238//295 302//295 303//295 237//295
f 307//296 313//296 311//296 305//296
f 423//269 424//269 310//269 298//269
f 306//297 312//297 308//297 297//297
f 387//81 498//81 386//81
f 236//289 456//289 446//289 273//289
f 273//82 446//82 274//82
f 307//81 291//81 299//81 304//81
f 380//298 473//298 474//298 225//298
f 227//299 475//299 476//299 229//299
f 225//300 474//300 475//300 227//300
f 229//301 476//301 477//301 382//301
f 500//266 384//266 385//266
f 233//266 232//266 501//266
f 232//266 231//266 501//266
f 231//266 384//266 500//266
f 500//266 499//266 501//266 231//266
f 499//266 498//266 233//266 501//266
f 299//266 301//266 300//266 303//266 302//266 304//266
f 299//302 291//302 294//302 301//302
f 275//302 300//302 301//302 294//302 293//302
f 274//286 446//286 456//286 235//286
