<svg xmlns="http://www.w3.org/2000/svg" width="256" height="256" viewBox="0 0 256 256"><defs><radialGradient id="sky"><stop stop-color="#28374c"/><stop offset="1" stop-color="#090d18"/></radialGradient></defs><rect width="256" height="256" rx="18" fill="url(#sky)"/><rect x="10" y="10" width="236" height="236" rx="12" fill="none" stroke="#9f8054" stroke-width="3"/><circle cx="154" cy="78" r="1.4" fill="#8193b5" stroke="none" stroke-width="0"/><circle cx="101" cy="42" r="1.4" fill="#8193b5" stroke="none" stroke-width="0"/><circle cx="117" cy="218" r="0.6" fill="#8193b5" stroke="none" stroke-width="0"/><circle cx="141" cy="195" r="1.4" fill="#8193b5" stroke="none" stroke-width="0"/><circle cx="175" cy="65" r="0.6" fill="#8193b5" stroke="none" stroke-width="0"/><circle cx="101" cy="139" r="1.4" fill="#8193b5" stroke="none" stroke-width="0"/><circle cx="85" cy="166" r="1" fill="#8193b5" stroke="none" stroke-width="0"/><circle cx="120" cy="209" r="1.4" fill="#8193b5" stroke="none" stroke-width="0"/><circle cx="60" cy="221" r="1" fill="#8193b5" stroke="none" stroke-width="0"/><circle cx="95" cy="223" r="1" fill="#8193b5" stroke="none" stroke-width="0"/><circle cx="42" cy="123" r="0.6" fill="#8193b5" stroke="none" stroke-width="0"/><circle cx="157" cy="187" r="1" fill="#8193b5" stroke="none" stroke-width="0"/><circle cx="182" cy="44" r="1.4" fill="#8193b5" stroke="none" stroke-width="0"/><circle cx="176" cy="150" r="1" fill="#8193b5" stroke="none" stroke-width="0"/><circle cx="118" cy="183" r="0.6" fill="#8193b5" stroke="none" stroke-width="0"/><circle cx="162" cy="104" r="1" fill="#8193b5" stroke="none" stroke-width="0"/><circle cx="135" cy="61" r="1.4" fill="#8193b5" stroke="none" stroke-width="0"/><circle cx="118" cy="121" r="0.6" fill="#8193b5" stroke="none" stroke-width="0"/><circle cx="140" cy="45" r="1.4" fill="#8193b5" stroke="none" stroke-width="0"/><circle cx="29" cy="27" r="0.6" fill="#8193b5" stroke="none" stroke-width="0"/><circle cx="145" cy="130" r="1" fill="#8193b5" stroke="none" stroke-width="0"/><circle cx="117" cy="148" r="1.4" fill="#8193b5" stroke="none" stroke-width="0"/><circle cx="76" cy="24" r="1.4" fill="#8193b5" stroke="none" stroke-width="0"/><circle cx="81" cy="182" r="1" fill="#8193b5" stroke="none" stroke-width="0"/><circle cx="142" cy="50" r="1" fill="#8193b5" stroke="none" stroke-width="0"/><circle cx="109" cy="178" r="1.4" fill="#8193b5" stroke="none" stroke-width="0"/><circle cx="49" cy="87" r="0.6" fill="#8193b5" stroke="none" stroke-width="0"/><circle cx="137" cy="185" r="0.6" fill="#8193b5" stroke="none" stroke-width="0"/><circle cx="222" cy="118" r="1.4" fill="#8193b5" stroke="none" stroke-width="0"/><circle cx="47" cy="213" r="1" fill="#8193b5" stroke="none" stroke-width="0"/><circle cx="88" cy="227" r="1.4" fill="#8193b5" stroke="none" stroke-width="0"/><circle cx="182" cy="160" r="0.6" fill="#8193b5" stroke="none" stroke-width="0"/><circle cx="126" cy="231" r="1.4" fill="#8193b5" stroke="none" stroke-width="0"/><circle cx="225" cy="178" r="0.6" fill="#8193b5" stroke="none" stroke-width="0"/><circle cx="76" cy="67" r="1.4" fill="#8193b5" stroke="none" stroke-width="0"/><circle cx="126" cy="167" r="37" fill="#303443" stroke="#dfb77b" stroke-width="7"/><circle cx="126" cy="167" r="22" fill="#191e2b" stroke="#eee0c8" stroke-width="3"/><path d="M57 108 L57 76 Q68 52 79 76 L79 108 Z" fill="#3e6583" stroke="#81d5ff" stroke-width="4" stroke-linecap="round" stroke-linejoin="round"/><path d="M68 113 L99.9 123" fill="none" stroke="#dfb77b" stroke-width="3" stroke-linecap="round" stroke-linejoin="round"/><path d="M68 65 L72 71 L78 75 L72 79 L68 85 L64 79 L58 75 L64 71 Z" fill="#eee0c8" stroke="#eee0c8" stroke-width="1" stroke-linecap="round" stroke-linejoin="round"/><path d="M115 87 L115 55 Q126 31 137 55 L137 87 Z" fill="#3e6583" stroke="#81d5ff" stroke-width="4" stroke-linecap="round" stroke-linejoin="round"/><path d="M126 92 L126.0 123" fill="none" stroke="#dfb77b" stroke-width="3" stroke-linecap="round" stroke-linejoin="round"/><path d="M126 44 L130 50 L136 54 L130 58 L126 64 L122 58 L116 54 L122 50 Z" fill="#eee0c8" stroke="#eee0c8" stroke-width="1" stroke-linecap="round" stroke-linejoin="round"/><path d="M175 108 L175 76 Q186 52 197 76 L197 108 Z" fill="#3e6583" stroke="#81d5ff" stroke-width="4" stroke-linecap="round" stroke-linejoin="round"/><path d="M186 113 L153.0 123" fill="none" stroke="#dfb77b" stroke-width="3" stroke-linecap="round" stroke-linejoin="round"/><path d="M186 65 L190 71 L196 75 L190 79 L186 85 L182 79 L176 75 L182 71 Z" fill="#eee0c8" stroke="#eee0c8" stroke-width="1" stroke-linecap="round" stroke-linejoin="round"/><path d="M17 36V18H35 M221 18H239V36 M17 220V238H35 M220 238H239V220" fill="none" stroke="#dfb77b" stroke-width="3"/></svg>